<svg width="48" height="48" viewBox="0 0 48 48" fill="none" xmlns="http://www.w3.org/2000/svg">
<path d="M0 8C0 3.58172 3.58172 0 8 0H40C44.4183 0 48 3.58172 48 8V40C48 44.4183 44.4183 48 40 48H8C3.58172 48 0 44.4183 0 40V8Z" fill="#FA6EE4"/>
<path d="M37.541 28.8927C36.6763 25.608 33.3937 24.6731 31.9833 24.7284C28.3943 24.4819 26.711 26.9253 25.8085 28.3998C25.4475 28.9905 25.0991 29.5387 24.6919 30.55C24.5912 30.805 24.3477 31.4679 24.2008 30.805C23.3528 27.0698 20.4816 24.8601 17.4593 24.4436C16.8254 24.3544 16.9388 23.9635 17.6146 23.938C20.9727 23.5173 23.2773 20.5555 24.2469 17.0157C24.3267 16.7225 24.5072 16.7268 24.5911 17.0157C25.565 20.3557 27.8695 22.3954 29.5234 22.8501C30.6736 23.1688 32.7598 22.7609 33.7883 22.149C36.6343 20.4492 35.9795 16.3911 33.91 14.1601C33.91 14.1601 30.8457 10 23.1807 10C15.755 10 10 16.2933 10 22.7991C10 27.9154 12.5522 36.8943 23.9741 36.8943C26.2828 36.8943 28.3229 35.8532 29.4605 34.6847C30.3084 33.924 30.8793 32.9467 30.0062 35.1011C29.6661 35.73 29.0491 38.0502 32.4954 37.9992C34.229 37.8972 35.8871 37.4425 36.7141 36.4651C38.5485 34.2937 38.0279 30.4863 37.5284 28.8885L37.541 28.8927Z" fill="white"/>
</svg>
