<svg width="25" height="24" viewBox="0 0 25 24" fill="none" xmlns="http://www.w3.org/2000/svg">
<path d="M8.63457 10.9996C9.18679 10.9996 9.63457 11.4473 9.63457 11.9996C9.63433 12.5516 9.18665 12.9995 8.63457 12.9996H8.62481C8.07267 12.9996 7.62504 12.5516 7.62481 11.9996C7.62481 11.4473 8.07252 10.9996 8.62481 10.9996H8.63457Z" fill="#C0C0C4"/>
<path d="M12.6346 10.9996C13.1868 10.9996 13.6346 11.4473 13.6346 11.9996C13.6343 12.5516 13.1866 12.9995 12.6346 12.9996H12.6248C12.0727 12.9996 11.625 12.5516 11.6248 11.9996C11.6248 11.4473 12.0725 10.9996 12.6248 10.9996H12.6346Z" fill="#C0C0C4"/>
<path d="M16.6346 10.9996C17.1868 10.9996 17.6346 11.4473 17.6346 11.9996C17.6343 12.5516 17.1866 12.9995 16.6346 12.9996H16.6248C16.0727 12.9996 15.625 12.5516 15.6248 11.9996C15.6248 11.4473 16.0725 10.9996 16.6248 10.9996H16.6346Z" fill="#C0C0C4"/>
<path fill-rule="evenodd" clip-rule="evenodd" d="M6.23028 3.04937C8.33963 1.54249 10.9137 0.828966 13.4979 1.03472C16.082 1.24061 18.511 2.35251 20.3553 4.17437C22.1992 5.99611 23.3414 8.41057 23.5789 10.9917C23.8162 13.5731 23.134 16.1562 21.6531 18.2837C20.1721 20.4113 17.9865 21.9479 15.4832 22.6216C12.9994 23.29 10.3606 23.0658 8.0252 21.9908C7.86231 21.9315 7.68714 21.9159 7.51641 21.9449L4.16192 22.9263C4.15411 22.9286 4.14633 22.9311 4.13848 22.9332C3.80935 23.0205 3.46267 23.0218 3.13262 22.938C2.80274 22.8542 2.49925 22.6873 2.25176 22.4537C2.00427 22.2198 1.82005 21.9258 1.71758 21.6011C1.61523 21.2765 1.59739 20.9307 1.66582 20.5972L1.69414 20.4898L2.73711 17.2681C2.77271 17.0843 2.75745 16.8942 2.69024 16.7193C1.58723 14.3976 1.33075 11.7624 1.96856 9.27104C2.6116 6.75987 4.12112 4.55631 6.23028 3.04937ZM13.3397 3.02788C11.2253 2.85946 9.11927 3.44339 7.39336 4.67632C5.6675 5.90928 4.43222 7.7124 3.90606 9.76714C3.41296 11.6933 3.5728 13.7248 4.35332 15.5455L4.51738 15.9068L4.5457 15.9732C4.76602 16.5294 4.81589 17.139 4.68731 17.7232C4.68043 17.7544 4.67174 17.7856 4.66192 17.816L3.63164 20.9966L7.01348 20.0084C7.04185 20.0001 7.0714 19.9936 7.10039 19.9878C7.58295 19.8922 8.08064 19.9158 8.54961 20.0572L8.74883 20.1255L8.81621 20.1539C10.738 21.0512 12.9156 21.2412 14.9637 20.69C17.0118 20.1388 18.7997 18.8819 20.0115 17.1412C21.2232 15.4005 21.7808 13.2873 21.5867 11.1753C21.3925 9.06346 20.4586 7.08778 18.95 5.59722C17.4411 4.10665 15.4539 3.19638 13.3397 3.02788Z" fill="#C0C0C4"/>
</svg>
