<svg width="14" height="14" viewBox="0 0 14 14" fill="none" xmlns="http://www.w3.org/2000/svg">
<path d="M7.00195 2.34766C8.35652 2.34779 9.68097 2.74967 10.8066 3.50293C11.8621 4.20938 12.6986 5.19546 13.2246 6.34766L13.3262 6.58008L13.334 6.59863C13.43 6.85731 13.4299 7.14268 13.334 7.40137C13.3317 7.40756 13.3287 7.41381 13.3262 7.41992C12.8097 8.6722 11.9325 9.74349 10.8066 10.4971C9.68092 11.2504 8.35661 11.6532 7.00195 11.6533C5.6471 11.6533 4.32216 11.2505 3.19629 10.4971C2.07042 9.74352 1.19422 8.67216 0.677734 7.41992C0.675192 7.41377 0.672246 7.4076 0.669922 7.40137C0.573863 7.14259 0.573863 6.85741 0.669922 6.59863L0.677734 6.58008C1.19424 5.32794 2.07048 4.25643 3.19629 3.50293C4.32211 2.74955 5.64718 2.34768 7.00195 2.34766ZM7 4.67969C5.71795 4.67969 4.67973 5.71943 4.67969 7C4.67986 8.28046 5.71803 9.31934 7 9.31934C8.28175 9.31908 9.32014 8.2803 9.32031 7C9.32027 5.71959 8.28183 4.67994 7 4.67969Z" fill="#C0C0C4"/>
</svg>
