<svg width="14" height="14" viewBox="0 0 14 14" fill="none" xmlns="http://www.w3.org/2000/svg">
<path d="M8.73446 1.84576C9.4816 1.66395 10.2666 1.71357 10.9846 1.98875C11.7026 2.26395 12.3198 2.75158 12.754 3.38613C13.1877 4.0201 13.4185 4.77135 13.4154 5.53945L13.4125 5.68813C13.3498 7.21229 12.3342 8.32047 11.4945 9.16022C11.4923 9.16241 11.4899 9.16489 11.4876 9.16705L8.2924 12.2575C8.13404 12.4316 7.94256 12.5727 7.72843 12.671C7.50282 12.7746 7.25776 12.829 7.00952 12.8305C6.76125 12.8321 6.51526 12.7809 6.28833 12.6802C6.06923 12.5829 5.87284 12.4412 5.71069 12.2649L2.50977 9.16648C2.50758 9.16438 2.50508 9.16236 2.50293 9.16022C1.66369 8.32097 0.647606 7.2181 0.58488 5.6887L0.582031 5.53945C0.582094 4.77238 0.81503 4.02274 1.24967 3.39069C1.68434 2.75874 2.30056 2.27351 3.01676 1.999C3.73307 1.72448 4.51602 1.67354 5.2618 1.85317C5.91575 2.01073 6.51438 2.33906 6.99756 2.80223C7.47981 2.3359 8.07935 2.00523 8.73446 1.84576Z" fill="#C0C0C4"/>
</svg>
