<svg width="28" height="28" viewBox="0 0 28 28" fill="none" xmlns="http://www.w3.org/2000/svg">
<path d="M27.541 18.8927C26.6763 15.608 23.3937 14.6731 21.9833 14.7284C18.3943 14.4819 16.711 16.9253 15.8085 18.3998C15.4475 18.9905 15.0991 19.5387 14.6919 20.55C14.5912 20.805 14.3477 21.4679 14.2008 20.805C13.3528 17.0698 10.4816 14.8601 7.45928 14.4436C6.82543 14.3544 6.93877 13.9635 7.6146 13.938C10.9727 13.5173 13.2773 10.5555 14.2469 7.01573C14.3267 6.72252 14.5072 6.72677 14.5911 7.01573C15.565 10.3557 17.8695 12.3954 19.5234 12.8501C20.6736 13.1688 22.7598 12.7609 23.7883 12.149C26.6343 10.4492 25.9795 6.39107 23.91 4.16014C23.91 4.16014 20.8457 0 13.1807 0C5.75503 0 0 6.29333 0 12.7991C0 17.9154 2.5522 26.8943 13.9741 26.8943C16.2828 26.8943 18.3229 25.8532 19.4605 24.6847C20.3084 23.924 20.8793 22.9467 20.0062 25.1011C19.6661 25.73 19.0491 28.0502 22.4954 27.9992C24.229 27.8972 25.8871 27.4425 26.7141 26.4651C28.5484 24.2937 28.0279 20.4863 27.5284 18.8885L27.541 18.8927Z" fill="#FA6EE4"/>
</svg>
