<svg width="20" height="20" viewBox="0 0 20 20" fill="none" xmlns="http://www.w3.org/2000/svg">
<path d="M10.1788 0.844238C10.3541 0.868778 10.5229 0.93004 10.6744 1.02409C10.8259 1.11815 10.9555 1.24241 11.0553 1.38867L11.1448 1.54167L13.0703 5.44141C13.1373 5.57692 13.2361 5.69424 13.3584 5.7832C13.4808 5.87225 13.6236 5.93049 13.7734 5.95247L18.0776 6.58236C18.2541 6.60796 18.4216 6.67049 18.5716 6.76465L18.7156 6.86881L18.8426 6.99251C18.9215 7.08052 18.9877 7.17919 19.0395 7.28548L19.1062 7.44987L19.1494 7.6224C19.1801 7.79671 19.1742 7.97661 19.1315 8.14974C19.0745 8.38054 18.9542 8.59085 18.784 8.75684L18.7832 8.75765L15.6704 11.7891C15.5619 11.8948 15.4805 12.0251 15.4336 12.1691C15.3867 12.3131 15.3756 12.4666 15.401 12.6159L16.135 16.8957L16.1538 17.0731C16.1599 17.2508 16.1289 17.4286 16.0618 17.5947C15.9723 17.8163 15.8222 18.0085 15.6289 18.1489C15.4355 18.2893 15.2064 18.3724 14.9681 18.389C14.7297 18.4056 14.4913 18.3548 14.2804 18.2425L10.436 16.221C10.302 16.1508 10.1527 16.1144 10.0014 16.1144C9.85034 16.1145 9.70148 16.1509 9.56767 16.221L5.72082 18.2425L5.72164 18.2433C5.51081 18.3549 5.27271 18.4051 5.03479 18.3882C4.79696 18.3712 4.56846 18.2883 4.37561 18.1481C4.1827 18.0078 4.03293 17.8158 3.94348 17.5947C3.87636 17.4287 3.84545 17.2508 3.85152 17.0731L3.86942 16.8965L4.60347 12.6167C4.62905 12.4674 4.61773 12.314 4.57092 12.1699C4.53577 12.0618 4.48142 11.961 4.4106 11.8729L4.3341 11.7891L1.2205 8.75846L1.22131 8.75765C1.05084 8.59214 0.929751 8.38274 0.87219 8.15218C0.814389 7.9205 0.822108 7.677 0.89579 7.44987L0.962522 7.28467C1.04046 7.12478 1.15166 6.98245 1.28886 6.86719C1.47163 6.71366 1.6938 6.6142 1.93013 6.58073L6.23108 5.95247L6.34175 5.92887C6.45088 5.89922 6.55412 5.85003 6.64612 5.7832C6.76858 5.69422 6.86794 5.57711 6.93502 5.44141L8.85884 1.54248L8.85966 1.54167C8.96501 1.32882 9.1275 1.14943 9.32922 1.02409C9.53113 0.898749 9.76459 0.832031 10.0022 0.832031L10.1788 0.844238Z" fill="#5767ED"/>
</svg>
