<svg width="102" height="102" viewBox="0 0 102 102" fill="none" xmlns="http://www.w3.org/2000/svg">
<path d="M83.1375 77.3466C87.7151 71.8389 90.8989 65.3097 92.4195 58.3114C93.9401 51.3131 93.7528 44.0514 91.8734 37.1408C89.994 30.2301 86.4778 23.8738 81.6223 18.6095C76.7668 13.3452 70.7148 9.32772 63.9782 6.89703C57.2417 4.46634 50.0188 3.6939 42.9206 4.64505C35.8224 5.5962 29.0577 8.24296 23.1988 12.3614C17.3398 16.4799 12.559 21.9489 9.26073 28.3058C5.96244 34.6628 4.24374 41.7206 4.25002 48.8822C4.2527 59.2931 7.92144 69.3706 14.6126 77.3466L14.5488 77.4008C14.772 77.6685 15.027 77.898 15.2565 78.1626C15.5433 78.4909 15.8525 78.8001 16.149 79.1188C17.0372 80.09 17.9616 81.0143 18.9221 81.892C19.2196 82.1554 19.5171 82.4126 19.8146 82.6633C20.8346 83.5452 21.8865 84.3761 22.9702 85.1559C23.1105 85.2516 23.238 85.3759 23.3782 85.4747V85.4364C30.8435 90.6904 39.7494 93.5102 48.8782 93.5102C58.007 93.5102 66.9129 90.6904 74.3782 85.4364V85.4747C74.5184 85.3759 74.6428 85.2516 74.7862 85.1559C75.8699 84.3739 76.9218 83.5431 77.9418 82.6633C78.2393 82.4104 78.5368 82.1533 78.8343 81.892C79.7927 81.0143 80.7171 80.09 81.6074 79.1188C81.9039 78.8001 82.2099 78.4909 82.4999 78.1626C82.7263 77.898 82.9845 77.6685 83.2076 77.3976L83.1375 77.3466ZM48.875 23.3822C51.7119 23.3822 54.4852 24.2234 56.844 25.7996C59.2028 27.3757 61.0413 29.6159 62.1269 32.2368C63.2126 34.8578 63.4966 37.7419 62.9432 40.5243C62.3897 43.3067 61.0236 45.8625 59.0176 47.8685C57.0116 49.8745 54.4558 51.2406 51.6733 51.7941C48.8909 52.3475 46.0069 52.0635 43.3859 50.9778C40.7649 49.8922 38.5247 48.0537 36.9486 45.6949C35.3725 43.3361 34.5313 40.5629 34.5313 37.7259C34.5313 33.9217 36.0425 30.2734 38.7325 27.5834C41.4224 24.8934 45.0708 23.3822 48.875 23.3822ZM23.3973 77.3466C23.4526 73.1613 25.1535 69.166 28.1319 66.2252C31.1103 63.2843 35.1269 61.6343 39.3125 61.6322H58.4375C62.6232 61.6343 66.6397 63.2843 69.6181 66.2252C72.5966 69.166 74.2974 73.1613 74.3527 77.3466C67.362 83.6461 58.2853 87.1324 48.875 87.1324C39.4647 87.1324 30.388 83.6461 23.3973 77.3466Z" fill="#C0C0C4"/>
</svg>
